<?xml version="1.0" encoding="UTF-8"?>
<svg width="240" height="240" viewBox="0 0 240 240" fill="none" xmlns="http://www.w3.org/2000/svg">
  <!-- Gradient definitions -->
  <defs>
    <linearGradient id="purpleGradient" x1="0%" y1="0%" x2="100%" y2="100%">
      <stop offset="0%" stop-color="#a855f7" />
      <stop offset="100%" stop-color="#6366f1" />
    </linearGradient>
    <linearGradient id="pinkGradient" x1="0%" y1="0%" x2="100%" y2="100%">
      <stop offset="0%" stop-color="#ec4899" />
      <stop offset="100%" stop-color="#a855f7" />
    </linearGradient>
    <filter id="glow" x="-20%" y="-20%" width="140%" height="140%">
      <feGaussianBlur stdDeviation="8" result="blur" />
      <feComposite in="SourceGraphic" in2="blur" operator="over" />
    </filter>
  </defs>
  
  <!-- Background hexagon (vault shape) -->
  <path 
    d="M120 30L195 72.5V157.5L120 200L45 157.5V72.5L120 30Z" 
    fill="url(#purpleGradient)"
    stroke="rgba(255,255,255,0.2)"
    stroke-width="3"
    filter="url(#glow)"
  />
  
  <!-- Inner vault/shield design -->
  <path 
    d="M120 60L170 90V150L120 180L70 150V90L120 60Z" 
    fill="rgba(0,0,0,0.15)"
    stroke="rgba(255,255,255,0.4)"
    stroke-width="2"
  />
  
  <!-- Checkmark (completed task) -->
  <path 
    d="M90 120L110 140L150 100" 
    stroke="url(#pinkGradient)"
    stroke-width="12"
    stroke-linecap="round"
    stroke-linejoin="round"
    filter="url(#glow)"
  />
  
  <!-- Blockchain nodes -->
  <circle cx="70" cy="90" r="6" fill="white" opacity="0.8" />
  <circle cx="170" cy="90" r="6" fill="white" opacity="0.8" />
  <circle cx="70" cy="150" r="6" fill="white" opacity="0.8" />
  <circle cx="170" cy="150" r="6" fill="white" opacity="0.8" />
  <circle cx="120" cy="60" r="6" fill="white" opacity="0.8" />
  <circle cx="120" cy="180" r="6" fill="white" opacity="0.8" />
  
  <!-- Connection lines (blockchain) -->
  <path d="M70 90L120 60" stroke="white" stroke-width="1.5" opacity="0.4" />
  <path d="M120 60L170 90" stroke="white" stroke-width="1.5" opacity="0.4" />
  <path d="M170 90L170 150" stroke="white" stroke-width="1.5" opacity="0.4" />
  <path d="M170 150L120 180" stroke="white" stroke-width="1.5" opacity="0.4" />
  <path d="M120 180L70 150" stroke="white" stroke-width="1.5" opacity="0.4" />
  <path d="M70 150L70 90" stroke="white" stroke-width="1.5" opacity="0.4" />
  <path d="M70 90L170 150" stroke="white" stroke-width="1.5" opacity="0.4" />
  <path d="M70 150L170 90" stroke="white" stroke-width="1.5" opacity="0.4" />
</svg> 